<?xml version="1.0" standalone="no"?><!DOCTYPE svg PUBLIC "-//W3C//DTD SVG 1.1//EN" "http://www.w3.org/Graphics/SVG/1.1/DTD/svg11.dtd"><svg t="1739318192698" class="icon" viewBox="0 0 1024 1024" version="1.1" xmlns="http://www.w3.org/2000/svg" p-id="6435" xmlns:xlink="http://www.w3.org/1999/xlink" width="200" height="200"><path d="M797.7472 910.336H227.6352A156.0576 156.0576 0 0 1 71.68 754.432V266.9056a156.0576 156.0576 0 0 1 155.9552-155.8528h570.112a156.0576 156.0576 0 0 1 155.904 155.8528v487.5264a156.0576 156.0576 0 0 1-155.904 155.904zM227.6352 172.4928A94.5152 94.5152 0 0 0 133.12 266.9056v487.5264a94.5664 94.5664 0 0 0 94.5152 94.464h570.112a94.6176 94.6176 0 0 0 94.464-94.464V266.9056a94.5664 94.5664 0 0 0-94.464-94.4128z" fill="#2c2c2c" p-id="6436"></path><path d="M318.1568 432.9984a88.6272 88.6272 0 1 1 88.6272-88.6272 88.7808 88.7808 0 0 1-88.6272 88.6272z m0-115.8144a27.1872 27.1872 0 1 0 27.1872 27.1872A27.1872 27.1872 0 0 0 318.1568 317.44zM210.944 732.672a30.72 30.72 0 0 1-18.688-55.0912L341.1968 563.2a30.72 30.72 0 0 1 40.96 3.1744l51.2 53.7088 184.7296-180.2752a30.72 30.72 0 0 1 43.0592 0l172.1344 170.496a30.72 30.72 0 0 1-43.2128 43.6736L639.488 505.0368 454.1952 686.08a30.72 30.72 0 0 1-22.016 8.704 30.72 30.72 0 0 1-21.6576-9.472l-53.8112-56.32-127.0784 97.28a30.4128 30.4128 0 0 1-18.688 6.4z" fill="#2c2c2c" p-id="6437"></path></svg>