<svg width="38" height="38" viewBox="0 0 38 38" fill="none" xmlns="http://www.w3.org/2000/svg">
<path d="M19 33.25L16.7042 31.1916C14.0389 28.7902 11.8354 26.7187 10.0938 24.9771C8.3521 23.2354 6.96669 21.6784 5.93752 20.3062C4.90835 18.9076 4.18266 17.6277 3.76044 16.4666C3.3646 15.3055 3.16669 14.118 3.16669 12.9041C3.16669 10.4236 3.99794 8.35205 5.66044 6.68955C7.32294 5.02705 9.39447 4.1958 11.875 4.1958C13.2472 4.1958 14.5535 4.48608 15.7938 5.06663C17.034 5.64719 18.1028 6.46525 19 7.5208C19.8972 6.46525 20.966 5.64719 22.2063 5.06663C23.4465 4.48608 24.7528 4.1958 26.125 4.1958C28.6056 4.1958 30.6771 5.02705 32.3396 6.68955C34.0021 8.35205 34.8334 10.4236 34.8334 12.9041C34.8334 14.118 34.6222 15.3055 34.2 16.4666C33.8042 17.6277 33.0917 18.9076 32.0625 20.3062C31.0334 21.6784 29.6479 23.2354 27.9063 24.9771C26.1646 26.7187 23.9611 28.7902 21.2959 31.1916L19 33.25ZM19 28.975C21.5334 26.7055 23.6181 24.7659 25.2542 23.1562C26.8903 21.5201 28.1834 20.1083 29.1334 18.9208C30.0834 17.7069 30.7431 16.6382 31.1125 15.7146C31.482 14.7646 31.6667 13.8277 31.6667 12.9041C31.6667 11.3208 31.1389 10.0014 30.0834 8.9458C29.0278 7.89025 27.7084 7.36247 26.125 7.36247C24.8847 7.36247 23.7368 7.71872 22.6813 8.43122C21.6257 9.11733 20.9 10.0014 20.5042 11.0833H17.4959C17.1 10.0014 16.3743 9.11733 15.3188 8.43122C14.2632 7.71872 13.1153 7.36247 11.875 7.36247C10.2917 7.36247 8.97224 7.89025 7.91669 8.9458C6.86113 10.0014 6.33335 11.3208 6.33335 12.9041C6.33335 13.8277 6.51808 14.7646 6.88752 15.7146C7.25697 16.6382 7.91669 17.7069 8.86669 18.9208C9.81669 20.1083 11.1097 21.5201 12.7459 23.1562C14.382 24.7659 16.4667 26.7055 19 28.975Z" fill="#1D1B20"/>
</svg>
